<svg xmlns="http://www.w3.org/2000/svg" width="37" height="62" viewBox="0 0 37 62">
  <g id="BT_-_Voltar_ao_topo" data-name="BT - Voltar ao topo" transform="translate(-1849 -4100)">
    <rect id="Rectangle_213" data-name="Rectangle 213" width="37" height="36" transform="translate(1849 4113)" fill="#522374"/>
    <path id="Path_125" data-name="Path 125" d="M17.862,135.877h0l-3.688-3.67a.706.706,0,0,0-1,1l2.476,2.464H.706a.706.706,0,1,0,0,1.412H15.654l-2.476,2.464a.706.706,0,0,0,1,1l3.688-3.67h0A.706.706,0,0,0,17.862,135.877Z" transform="translate(1731 4140.069) rotate(-90)" fill="#fff"/>
    <rect id="Rectangle_222" data-name="Rectangle 222" width="37" height="13" transform="translate(1849 4100)" fill="#fff" opacity="0"/>
    <rect id="Rectangle_223" data-name="Rectangle 223" width="37" height="13" transform="translate(1849 4149)" fill="#fff" opacity="0"/>
  </g>
</svg>
