<svg xmlns="http://www.w3.org/2000/svg" width="32.622" height="22.835" viewBox="0 0 32.622 22.835">
  <path id="icon-frete" d="M2825.248,6024.573h-9.874a3.8,3.8,0,0,1-7.525,0h-1.132a1.632,1.632,0,0,1-1.631-1.63v-1.631h-.543a.546.546,0,0,1-.545-.545v-14.135a1.633,1.633,0,0,1,1.632-1.631h19.028a1.633,1.633,0,0,1,1.632,1.631v3.262h4.947a1.633,1.633,0,0,1,1.224.549l3.744,4.218a1.627,1.627,0,0,1,.415,1.084v7.2a1.631,1.631,0,0,1-1.631,1.63h-2.218a3.8,3.8,0,0,1-7.525,0Zm1.044-.543a2.719,2.719,0,1,0,2.719-2.718A2.718,2.718,0,0,0,2826.292,6024.03Zm-17.4,0a2.719,2.719,0,1,0,2.719-2.718A2.718,2.718,0,0,0,2808.893,6024.03Zm17.4-3.806h2.719a3.809,3.809,0,0,1,3.762,3.262h2.218a.544.544,0,0,0,.543-.543v-4.894H2830.1a1.632,1.632,0,0,1-1.631-1.631v-5.437h-2.174Zm-3.263,3.262h2.218a3.794,3.794,0,0,1,1.1-2.174h-3.322Zm-4.892,0h3.8v-2.174h-3.8Zm-2.762,0h1.675v-2.174h-2.779A3.794,3.794,0,0,1,2815.374,6023.485Zm-9.2-.543a.544.544,0,0,0,.543.543h1.132a3.785,3.785,0,0,1,1.1-2.174h-2.779Zm-1.088-16.311v13.592H2825.2v-13.592a.546.546,0,0,0-.545-.544h-19.028A.546.546,0,0,0,2805.087,6006.631Zm24.466,9.786a.546.546,0,0,0,.543.544h5.437v-1.218a.544.544,0,0,0-.139-.363l-3.746-4.219a.549.549,0,0,0-.41-.182h-1.685Zm-2.175,7.612a1.632,1.632,0,1,1,1.632,1.631A1.631,1.631,0,0,1,2827.378,6024.03Zm1.088,0a.544.544,0,1,0,.545-.544A.544.544,0,0,0,2828.465,6024.03Zm-18.485,0a1.631,1.631,0,1,1,1.631,1.631A1.63,1.63,0,0,1,2809.981,6024.03Zm1.086,0a.544.544,0,1,0,.544-.544A.544.544,0,0,0,2811.067,6024.03Z" transform="translate(-2803.999 -6005)" fill="#9a2c6e"/>
</svg>
