<svg xmlns="http://www.w3.org/2000/svg" xmlns:xlink="http://www.w3.org/1999/xlink" width="57.207" height="17.311" viewBox="0 0 57.207 17.311">
  <defs>
    <clipPath id="clip-path">
      <rect id="Rectangle_504" data-name="Rectangle 504" width="57.207" height="17.311" fill="#676767"/>
    </clipPath>
  </defs>
  <g id="logo-ecan" clip-path="url(#clip-path)">
    <path id="Path_179" data-name="Path 179" d="M1123.32,72.506a5.409,5.409,0,0,0-4.446-2.028,6.1,6.1,0,0,0-4.533,1.937,6.87,6.87,0,0,0,0,9.425,6.1,6.1,0,0,0,4.533,1.937,5.409,5.409,0,0,0,4.446-2.028v1.709h2.522V70.942h-2.522Zm-1.2,7.615h0a4.252,4.252,0,0,1-5.936,0,4.345,4.345,0,0,1,0-5.987,4.252,4.252,0,0,1,5.936,0,4.345,4.345,0,0,1,0,5.987" transform="translate(-1081.523 -68.517)" fill="#676767"/>
    <path id="Path_180" data-name="Path 180" d="M1661.524,71.9a4.769,4.769,0,0,0-3.6-1.422,4.6,4.6,0,0,0-3.783,1.673V70.942h-2.522V83.458h2.522v-6.7a4.033,4.033,0,0,1,.926-2.92,3.289,3.289,0,0,1,2.44-.937,2.821,2.821,0,0,1,2.1.765,3,3,0,0,1,.755,2.184v7.607h2.522V75.728a5.336,5.336,0,0,0-1.354-3.828" transform="translate(-1605.672 -68.517)" fill="#676767"/>
    <path id="Path_181" data-name="Path 181" d="M193.656,188.617a3.173,3.173,0,0,0-2.357.945,3.3,3.3,0,0,0-.933,2.418,4.151,4.151,0,0,0,.025.45l3.777-3.777a3.644,3.644,0,0,0-.513-.036" transform="translate(-185.071 -183.37)" fill="#676767"/>
    <path id="Path_182" data-name="Path 182" d="M15.847,0H1.577A1.582,1.582,0,0,0,0,1.577V15.733a1.582,1.582,0,0,0,1.577,1.577h14.27a1.582,1.582,0,0,0,1.577-1.577V1.577A1.582,1.582,0,0,0,15.847,0M11.874,14.219a6.3,6.3,0,0,1-3.265.871,6.353,6.353,0,0,1-6.48-6.48A6.353,6.353,0,0,1,8.61,2.13a6.362,6.362,0,0,1,3.265.859,5.773,5.773,0,0,1,1.866,1.7L6.9,11.527a3.31,3.31,0,0,0,1.681.421,3.366,3.366,0,0,0,1.706-.43,2.7,2.7,0,0,0,1.117-1.191L14.157,11.9a6.145,6.145,0,0,1-2.283,2.32M15.295,9.03H13.032V8.19h2.263Z" fill="#676767"/>
    <path id="Path_183" data-name="Path 183" d="M690.269,80.729h0a4.107,4.107,0,0,1-2.111.55,3.991,3.991,0,0,1-2.943-1.195,4.316,4.316,0,0,1,0-5.938,4.213,4.213,0,0,1,5.04-.634,3.51,3.51,0,0,1,1.16,1.124l1.688-1.881a5.818,5.818,0,0,0-1.58-1.378,6.677,6.677,0,1,0-3.364,12.4,6.513,6.513,0,0,0,3.363-.9,6.316,6.316,0,0,0,1.68-1.428l-1.694-1.888a3.709,3.709,0,0,1-1.238,1.166" transform="translate(-662.549 -68.517)" fill="#676767"/>
  </g>
</svg>
