<svg xmlns="http://www.w3.org/2000/svg" width="49.635" height="18.054" viewBox="0 0 49.635 18.054">
  <path id="logo-vtex" d="M10.158,17.189,8.43,13.917,7.052,16.51a1.051,1.051,0,0,1-1.859,0L.121,6.908a1.051,1.051,0,0,1,.931-1.541H3.91L2.333,2.381A1.618,1.618,0,0,1,3.766,0H19.535a1.576,1.576,0,0,1,1.394,2.32l-7.9,14.873a1.622,1.622,0,0,1-2.867,0ZM4.432,6.382l3.375,6.387a.7.7,0,0,0,1.237,0l3.408-6.414a.681.681,0,0,0-.6-1h-6.8a.7.7,0,0,0-.616,1.028Zm32.894,4.54V7.548c0-1.848,1.167-2.173,2.477-2.173a13.206,13.206,0,0,1,2.04.131c.142.021.2.071.2.2v.946a.206.206,0,0,1-.2.2H39.7c-.477,0-.65.162-.65.69v.924h2.71a.2.2,0,0,1,.2.2v.965a.2.2,0,0,1-.2.2h-2.71v1.076c0,.527.173.69.65.69h2.141a.206.206,0,0,1,.2.2v.944c0,.131-.061.193-.2.213a13.375,13.375,0,0,1-2.05.131C38.483,13.1,37.326,12.769,37.326,10.922ZM25.149,12c-.02-.062-1.82-6.318-1.82-6.318a.156.156,0,0,1,.152-.192h1.451a.157.157,0,0,1,.154.126l1.475,5.457c.021.11.051.152.142.152s.122-.041.142-.152l1.474-5.456a.156.156,0,0,1,.153-.126h1.443a.156.156,0,0,1,.152.192s-1.76,6.235-1.788,6.32a1.576,1.576,0,0,1-1.565,1.1A1.528,1.528,0,0,1,25.149,12ZM43.2,13.015a.134.134,0,0,1-.152-.132.19.19,0,0,1,.02-.071l2.2-3.668L43.046,5.661a.136.136,0,0,1-.02-.061.145.145,0,0,1,.152-.132h1.634c.112,0,.193.1.253.194l1.3,2.05,1.257-2.05a.329.329,0,0,1,.253-.194h1.5a.146.146,0,0,1,.152.132.138.138,0,0,1-.021.061L47.3,9.165,49.6,12.812a.222.222,0,0,1,.03.1c0,.059-.05.1-.131.1H47.888a.269.269,0,0,1-.264-.152l-1.4-2.222-1.268,2.174c-.072.122-.142.2-.253.2Zm-10.154,0a.2.2,0,0,1-.2-.2V6.9H31.109a.194.194,0,0,1-.2-.193V5.662a.193.193,0,0,1,.06-.14.2.2,0,0,1,.143-.054h5.2a.205.205,0,0,1,.213.194V6.708a.2.2,0,0,1-.213.193H34.581v5.911a.2.2,0,0,1-.2.2Z" transform="translate(0.001)" fill="#676767"/>
</svg>
