<svg xmlns="http://www.w3.org/2000/svg" width="31" height="22.529" viewBox="0 0 31 22.529">
  <path id="icon-parcele" d="M2267.5,6027.529a1.5,1.5,0,0,1-1.5-1.5v-13a1.509,1.509,0,0,1,1.5-1.5h3.87l1.728-5.462a1.432,1.432,0,0,1,1.879-.976l20.98,6.627a1.45,1.45,0,0,1,.977,1.88l-3.918,12.4a1.486,1.486,0,0,1-1.428,1.05,7,7,0,0,1-.83-.189,1.49,1.49,0,0,1-1.251.678Zm-.5-14.505v13a.5.5,0,0,0,.5.5h22a.5.5,0,0,0,.5-.5h.006v-13a.5.5,0,0,0-.5-.5H2267.5A.5.5,0,0,0,2267,6013.024Zm24,12.856.433.136a.505.505,0,0,0,.628-.325l2.411-7.627-3.472-1.1Zm0-9.964,3.771,1.189.6-1.909-4.375-1.379Zm-16.959-9.551-.3.953,13.328,4.211h2.434a1.5,1.5,0,0,1,1.47,1.231l4.706,1.484.3-.953a.47.47,0,0,0-.33-.628l-20.98-6.623a.515.515,0,0,0-.15-.023A.5.5,0,0,0,2274.043,6006.365Zm-1.623,5.164h1.374l-1.251-.4Zm.42-1.355,4.266,1.348h6.646l-10.306-3.252Zm6.164,14.353v-1h3v1Zm-5,0v-1h3v1Zm-5,0v-1h3v1Zm0-3v-1h18v1Zm0-3v-1h7.5v1Zm16.507-.774a2,2,0,1,1,0-3.455,1.964,1.964,0,0,1,1-.274,2,2,0,0,1,0,4A1.965,1.965,0,0,1,2285.51,6017.753Zm-.006-1.728a1,1,0,1,0,1-1A1.007,1.007,0,0,0,2285.5,6016.025Zm-2,0a1.007,1.007,0,0,0,1,1,.937.937,0,0,0,.257-.038,1.935,1.935,0,0,1,0-1.927,1.189,1.189,0,0,0-.257-.036A1,1,0,0,0,2283.5,6016.025Zm-14.5-.5v-1h5v1Z" transform="translate(-2266 -6005)" fill="#9a2c6e"/>
</svg>
